<svg width="300" height="300" viewBox="0 0 300 300" fill="none" xmlns="http://www.w3.org/2000/svg">
<g clip-path="url(#clip0_1_2)">
<path fill-rule="evenodd" clip-rule="evenodd" d="M61.3883 238.428C110.204 287.244 189.349 287.244 238.165 238.428C286.981 189.613 286.981 110.467 238.165 61.6518C189.35 12.8363 110.204 12.8363 61.3883 61.6518C12.5728 110.467 12.5728 189.613 61.3883 238.428ZM79.066 220.751C118.118 259.803 181.435 259.803 220.487 220.751C259.54 181.698 259.54 118.382 220.487 79.3295C181.435 40.277 118.118 40.277 79.066 79.3295C40.0136 118.382 40.0136 181.698 79.066 220.751Z" fill="#62C9F9"/>
<circle cx="149.777" cy="150.04" r="50" transform="rotate(45 149.777 150.04)" fill="#62C9F9"/>
<circle cx="229.68" cy="70.1371" r="35" transform="rotate(45 229.68 70.1371)" fill="#62C9F9"/>
</g>
<defs>
<clipPath id="clip0_1_2">
<rect width="300" height="300" fill="white"/>
</clipPath>
</defs>
</svg>
